HIERARCHY
ROOT Hips
{
	OFFSET	0.00	0.00	0.00
	CHANNELS 6 Xposition Yposition Zposition Zrotation Xrotation Yrotation
	JOINT LeftUpLeg
	{
		OFFSET	 0.126116	-0.014019	-0.065224
		CHANNELS 3 Zrotation Xrotation Yrotation
		JOINT LeftLeg
		{
			OFFSET	 0.000000	 0.000000	 0.569914
			CHANNELS 3 Zrotation Xrotation Yrotation
			JOINT LeftFoot
			{
				OFFSET	 0.000000	 0.000000	 0.544423
				CHANNELS 3 Zrotation Xrotation Yrotation
				JOINT LeftToeBase
				{
					OFFSET	 0.000000	 0.000000	 0.207117
					CHANNELS 3 Zrotation Xrotation Yrotation
					End Site
					{
						OFFSET	 0.000000	 0.000000	 0.207117
					}
				}
			}
		}
	}
	JOINT RightUpLeg
	{
		OFFSET	-0.124023	-0.008373	-0.065224
		CHANNELS 3 Zrotation Xrotation Yrotation
		JOINT RightLeg
		{
			OFFSET	 0.000000	 0.000000	 0.570047
			CHANNELS 3 Zrotation Xrotation Yrotation
			JOINT RightFoot
			{
				OFFSET	 0.000000	 0.000000	 0.544354
				CHANNELS 3 Zrotation Xrotation Yrotation
				JOINT RightToeBase
				{
					OFFSET	 0.000000	 0.000000	 0.207540
					CHANNELS 3 Zrotation Xrotation Yrotation
					End Site
					{
						OFFSET	 0.000000	 0.000000	 0.207540
					}
				}
			}
		}
	}
	JOINT Spine
	{
		OFFSET	 0.000184	-0.007763	 0.117403
		CHANNELS 3 Zrotation Xrotation Yrotation
		JOINT Spine1
		{
			OFFSET	 0.000000	 0.000000	 0.137269
			CHANNELS 3 Zrotation Xrotation Yrotation
			JOINT Spine2
			{
				OFFSET	 0.000000	 0.000000	 0.156879
				CHANNELS 3 Zrotation Xrotation Yrotation
				JOINT LeftShoulder
				{
					OFFSET	 0.080501	-0.002496	 0.160144
					CHANNELS 3 Zrotation Xrotation Yrotation
					JOINT LeftArm
					{
						OFFSET	 0.000000	 0.000000	 0.164363
						CHANNELS 3 Zrotation Xrotation Yrotation
						JOINT LeftForeArm
						{
							OFFSET	 0.000000	 0.000000	 0.364576
							CHANNELS 3 Zrotation Xrotation Yrotation
							JOINT LeftHand
							{
								OFFSET	 0.000000	 0.000000	 0.360812
								CHANNELS 3 Zrotation Xrotation Yrotation
								JOINT LeftHandIndex1
								{
									OFFSET	 0.000000	 0.000000	 0.086006
									CHANNELS 3 Zrotation Xrotation Yrotation
									JOINT LeftHandIndex2
									{
										OFFSET	 0.000000	 0.000000	 0.047237
										CHANNELS 3 Zrotation Xrotation Yrotation
										JOINT LeftHandIndex3
										{
											OFFSET	-0.004284	-0.000551	 0.038165
											CHANNELS 3 Zrotation Xrotation Yrotation
											End Site
											{
												OFFSET	-0.004284	-0.000551	 0.038165
											}
										}
									}
								}
							}
						}
					}
				}
				JOINT Neck
				{
					OFFSET	 0.000000	 0.000000	 0.176489
					CHANNELS 3 Zrotation Xrotation Yrotation
					JOINT Head
					{
						OFFSET	 0.000000	-0.001747	 0.077940
						CHANNELS 3 Zrotation Xrotation Yrotation
						End Site
						{
							OFFSET	 0.000000	-0.001747	 0.077940
						}
					}
				}
				JOINT RightShoulder
				{
					OFFSET	-0.080363	 0.000306	 0.159706
					CHANNELS 3 Zrotation Xrotation Yrotation
					JOINT RightArm
					{
						OFFSET	 0.000000	 0.000000	 0.164196
						CHANNELS 3 Zrotation Xrotation Yrotation
						JOINT RightForeArm
						{
							OFFSET	 0.000000	 0.000000	 0.365611
							CHANNELS 3 Zrotation Xrotation Yrotation
							JOINT RightHand
							{
								OFFSET	 0.000000	 0.000000	 0.360648
								CHANNELS 3 Zrotation Xrotation Yrotation
								JOINT RightHandIndex1
								{
									OFFSET	 0.000000	 0.000000	 0.069977
									CHANNELS 3 Zrotation Xrotation Yrotation
									JOINT RightHandIndex2
									{
										OFFSET	 0.000000	 0.000000	 0.052305
										CHANNELS 3 Zrotation Xrotation Yrotation
										JOINT RightHandIndex3
										{
											OFFSET	 0.009002	-0.000782	 0.042196
											CHANNELS 3 Zrotation Xrotation Yrotation
											End Site
											{
												OFFSET	 0.009002	-0.000782	 0.042196
											}
										}
									}
								}
							}
						}
					}
				}
			}
		}
	}
}
MOTION
Frames:    7
Frame Time: 0.03333334
-0.719837	-1.660774	 1.275673	-177.738600	 5.170538	-0.074761	-6.192031	-7.028528	 178.685600	-0.411026	-11.600180	 0.309963	-21.577140	 59.366010	 10.363370	-2.385833	 28.452760	 0.000004	-4.146753	-8.903193	-179.770100	-5.281627	-15.019560	 1.460453	 11.595530	 73.384530	-2.407523	 2.384659	 28.388700	-0.000001	-6.071193	 5.774314	 1.946264	-3.501725	-6.846143	-15.035100	 9.707119	-8.998552	 17.471540	-91.776110	 78.527400	 179.999900	-29.324810	-4.882936	-9.173696	-5.277144	-3.496674	-19.502310	 9.607059	-2.008459	-4.763259	-4.131196	 21.524690	 0.986298	-5.167839	 0.733520	 3.519257	-1.378229	 35.397820	-2.634230	 1.602249	 5.671064	-0.187802	-14.087370	-6.523863	-4.041597	 89.782150	 78.203900	 180.000000	 0.022468	-0.085262	-2.356802	-3.815486	-8.419368	 26.095750	-17.447570	 33.307450	 63.824150	 5.715225	 19.176060	-3.692089	 5.027514	 0.245388	-9.378011	-2.350882	 35.473990	 5.254307
-0.719132	-1.659371	 1.275610	-177.288500	 5.690279	-0.676764	-5.595345	-7.670428	 179.130400	-0.742946	-11.997450	 0.251388	-20.668060	 57.634130	 10.182260	-2.385833	 28.452760	 0.000004	-3.144950	-10.088660	-179.154400	-4.695558	-16.096650	 1.726558	 7.090561	 76.529950	 2.050754	 2.384659	 28.388700	-0.000001	-6.838651	 6.287532	 2.549540	-3.847188	-8.749152	-15.561180	 9.601713	-8.183542	 17.653670	-91.776210	 78.527420	-180.000000	-33.036250	-2.127266	-5.595817	-6.097950	-4.673105	-27.352080	 8.990110	-2.457307	-4.543640	-4.131196	 21.524690	 0.986298	-5.167839	 0.733520	 3.519257	-1.378229	 35.397820	-2.634230	 1.654136	 6.827554	 0.081679	-13.953650	-8.103867	-4.485345	 89.782070	 78.203920	-180.000000	-0.181416	 1.374948	-4.359046	-4.145902	-10.363070	 30.513010	-19.150190	 37.310960	 68.970820	 5.715225	 19.176060	-3.692089	 5.027514	 0.245388	-9.378011	-2.350882	 35.473990	 5.254307
-0.718744	-1.658783	 1.275519	-177.164900	 5.809071	-0.895263	-5.413034	-7.858028	 179.287400	-0.765257	-12.242130	 0.251702	-20.566420	 57.254850	 10.226910	-2.385833	 28.452760	 0.000004	-2.653725	-10.445100	-178.911600	-4.724621	-16.485840	 1.758801	 6.213500	 77.604160	 3.068335	 2.384659	 28.388700	-0.000001	-7.083836	 6.371906	 2.733401	-3.989756	-9.089065	-15.595770	 9.575305	-8.031917	 17.598280	-91.776140	 78.527420	 180.000000	-33.821540	-1.259783	-4.174461	-6.456120	-5.040094	-30.175710	 8.751469	-2.597441	-4.480659	-4.131196	 21.524690	 0.986298	-5.167839	 0.733520	 3.519257	-1.378229	 35.397820	-2.634230	 1.640142	 7.075515	 0.191799	-13.903630	-8.386942	-4.552751	 89.782090	 78.203870	 180.000000	-0.278451	 1.915731	-5.084913	-4.000292	-10.991240	 32.226660	-19.338470	 38.490530	 69.854860	 5.715225	 19.176060	-3.692089	 5.027514	 0.245388	-9.378011	-2.350882	 35.473990	 5.254307
-0.716713	-1.655659	 1.275020	-176.668600	 6.344408	-1.767560	-4.677444	-8.849631	 179.815800	-0.850867	-13.874580	 0.264108	-20.485710	 56.109110	 10.805170	-2.385833	 28.452760	 0.000004	-0.690024	-12.009630	-177.847000	-4.838833	-18.090790	 1.888585	-0.156883	 81.771740	 9.973295	 2.384659	 28.388700	-0.000001	-8.208833	 6.583977	 3.467486	-4.743446	-10.114750	-16.023390	 9.545652	-7.555416	 17.583920	-91.776120	 78.527380	 180.000000	-36.879410	 2.622746	 2.259017	-8.104880	-6.375392	-42.359230	 7.804595	-3.203307	-4.218952	-4.131196	 21.524690	 0.986298	-5.167839	 0.733520	 3.519257	-1.378229	 35.397820	-2.634230	 1.579096	 8.071563	 0.635244	-13.707520	-9.525808	-4.816737	 89.782170	 78.203890	 179.999900	-0.842740	 4.731611	-8.295401	-2.932010	-13.809700	 40.225070	-19.553710	 43.029580	 72.646800	 5.715225	 19.176060	-3.692089	 5.027514	 0.245388	-9.378011	-2.350882	 35.473990	 5.254307
-0.713511	-1.651001	 1.274027	-176.513500	 6.459873	-2.155562	-4.697865	-9.800222	 179.652900	 0.007202	-17.059090	 0.574985	-23.166450	 56.536740	 13.432080	-2.385833	 28.452760	 0.000004	 1.256150	-13.500210	-177.136500	-5.718883	-20.163540	 1.790349	 7.886078	 84.739850	 2.678584	 2.384659	 28.388700	-0.000001	-9.222097	 6.040236	 3.779112	-5.773086	-8.020999	-16.678450	 9.919176	-8.436562	 17.895870	-91.776200	 78.527420	-180.000000	-34.875640	 6.028004	 10.299230	-10.031530	-7.487669	-56.034580	 7.383982	-3.462374	-4.075543	-4.131196	 21.524690	 0.986298	-5.167839	 0.733520	 3.519257	-1.378229	 35.397820	-2.634230	 1.467362	 8.036315	 0.988364	-13.562520	-9.173908	-4.653820	 89.782150	 78.203900	 179.999900	-2.132789	 8.606711	-11.582940	-0.361004	-16.189580	 49.953690	-15.942130	 42.784210	 65.643750	 5.715225	 19.176060	-3.692089	 5.027514	 0.245388	-9.378011	-2.350882	 35.473990	 5.254307
-0.709265	-1.644586	 1.272751	-176.400700	 6.634477	-2.521469	-4.925980	-10.644590	 179.252200	 1.069143	-20.566550	 1.062216	-26.658760	 57.368870	 16.774330	-2.385833	 28.452760	 0.000004	 3.310249	-15.522450	-176.260000	-6.671803	-22.871010	 1.645959	 38.901260	 87.368420	-27.563900	 2.384659	 28.388700	-0.000001	-10.565200	 5.232000	 3.980613	-7.152254	-4.816462	-17.521580	 10.514920	-9.850326	 18.474180	-91.776200	 78.527380	-180.000000	-31.658930	 10.699570	 18.691630	-12.116010	-8.097219	-70.016200	 7.005170	-3.690548	-3.941005	-4.131196	 21.524690	 0.986298	-5.167839	 0.733520	 3.519257	-1.378229	 35.397820	-2.634230	 1.354239	 7.924723	 1.330070	-13.423450	-8.717058	-4.464191	 89.782110	 78.203920	 180.000000	-3.850734	 14.144400	-14.249260	 2.737320	-18.096110	 60.191170	-13.331630	 40.627420	 57.701680	 5.715225	 19.176060	-3.692089	 5.027514	 0.245388	-9.378011	-2.350882	 35.473990	 5.254307
-0.704522	-1.636442	 1.271540	-176.377500	 6.923398	-2.667770	-5.946708	-11.224550	 178.463100	 2.257302	-24.000170	 1.714710	-31.043420	 58.034830	 21.112710	-2.385833	 28.452760	 0.000004	 3.945598	-17.929410	-175.455400	-6.831339	-25.444990	 1.750611	 54.820800	 86.345530	-43.515250	 2.384659	 28.388700	-0.000001	-12.214230	 4.158628	 3.797082	-8.814130	-0.317813	-18.720740	 11.637130	-12.049030	 19.893600	-91.776160	 78.527420	 180.000000	-27.553730	 17.005410	 25.668570	-13.974980	-8.057108	-82.386960	 6.603289	-3.911836	-3.812038	-4.131196	 21.524690	 0.986298	-5.167839	 0.733520	 3.519257	-1.378229	 35.397820	-2.634230	 1.475891	 8.036289	 1.293146	-13.379470	-8.997046	-4.561313	 89.782070	 78.203920	-180.000000	-6.250797	 21.633830	-15.425330	 5.562092	-19.420890	 69.021740	-13.952140	 36.839950	 52.069670	 5.715225	 19.176060	-3.692089	 5.027514	 0.245388	-9.378011	-2.350882	 35.473990	 5.254307
